<mxfile host="65bd71144e">
    <diagram id="reR5eKh1bH3kg-2ZDx3b" name="Page-1">
        <mxGraphModel dx="1060" dy="517" grid="1" gridSize="10" guides="1" tooltips="1" connect="1" arrows="1" fold="1" page="1" pageScale="1" pageWidth="1100" pageHeight="850" math="0" shadow="0">
            <root>
                <mxCell id="0"/>
                <mxCell id="1" parent="0"/>
                <mxCell id="2" value="" style="rounded=0;whiteSpace=wrap;html=1;" parent="1" vertex="1">
                    <mxGeometry width="1100" height="110" as="geometry"/>
                </mxCell>
                <mxCell id="3" value="&lt;font style=&quot;font-size: 30px;&quot;&gt;Device: name&lt;/font&gt;" style="text;html=1;strokeColor=none;fillColor=none;align=center;verticalAlign=middle;whiteSpace=wrap;rounded=0;" parent="1" vertex="1">
                    <mxGeometry y="15" width="300" height="80" as="geometry"/>
                </mxCell>
                <mxCell id="4" value="&lt;font style=&quot;font-size: 22px;&quot;&gt;Device Name&lt;/font&gt;" style="swimlane;whiteSpace=wrap;html=1;fontSize=30;" parent="1" vertex="1">
                    <mxGeometry x="40" y="160" width="260" height="330" as="geometry"/>
                </mxCell>
                <mxCell id="7" value="Project Name" style="rounded=0;whiteSpace=wrap;html=1;fontSize=16;" parent="4" vertex="1">
                    <mxGeometry x="10" y="30" width="240" height="30" as="geometry"/>
                </mxCell>
                <mxCell id="10" value="Description" style="rounded=0;whiteSpace=wrap;html=1;fontSize=16;" parent="4" vertex="1">
                    <mxGeometry x="10" y="230" width="240" height="80" as="geometry"/>
                </mxCell>
                <mxCell id="9" value="Status" style="rounded=0;whiteSpace=wrap;html=1;fontSize=16;" parent="4" vertex="1">
                    <mxGeometry x="10" y="130" width="240" height="30" as="geometry"/>
                </mxCell>
                <mxCell id="8" value="Preset Name" style="rounded=0;whiteSpace=wrap;html=1;fontSize=16;" parent="4" vertex="1">
                    <mxGeometry x="10" y="80" width="240" height="30" as="geometry"/>
                </mxCell>
                <mxCell id="50" value="Uptime" style="rounded=0;whiteSpace=wrap;html=1;fontSize=16;" vertex="1" parent="4">
                    <mxGeometry x="10" y="180" width="240" height="30" as="geometry"/>
                </mxCell>
                <mxCell id="13" value="&lt;font style=&quot;font-size: 22px;&quot;&gt;Active Logging Terminal&lt;/font&gt;" style="swimlane;whiteSpace=wrap;html=1;fontSize=30;" parent="1" vertex="1">
                    <mxGeometry x="340" y="160" width="420" height="330" as="geometry"/>
                </mxCell>
                <mxCell id="28" value="&lt;font style=&quot;font-size: 16px;&quot;&gt;Unregister Device&lt;/font&gt;" style="rounded=0;whiteSpace=wrap;html=1;fontSize=22;" parent="1" vertex="1">
                    <mxGeometry x="90" y="510" width="177.5" height="30" as="geometry"/>
                </mxCell>
                <mxCell id="46" value="" style="endArrow=none;html=1;fontSize=12;" parent="1" edge="1">
                    <mxGeometry width="50" height="50" relative="1" as="geometry">
                        <mxPoint y="640" as="sourcePoint"/>
                        <mxPoint x="1070" y="640" as="targetPoint"/>
                    </mxGeometry>
                </mxCell>
                <mxCell id="47" value="Github Link&lt;br&gt;" style="rounded=0;whiteSpace=wrap;html=1;fontSize=12;" parent="1" vertex="1">
                    <mxGeometry x="920" y="25" width="120" height="60" as="geometry"/>
                </mxCell>
                <mxCell id="49" value="&lt;font style=&quot;font-size: 16px;&quot;&gt;Download Logs&lt;/font&gt;" style="rounded=0;whiteSpace=wrap;html=1;fontSize=22;" vertex="1" parent="1">
                    <mxGeometry x="461" y="510" width="177.5" height="30" as="geometry"/>
                </mxCell>
                <mxCell id="51" value="&lt;font style=&quot;font-size: 22px;&quot;&gt;Descriptive Statistics&lt;/font&gt;" style="swimlane;whiteSpace=wrap;html=1;fontSize=30;" vertex="1" parent="1">
                    <mxGeometry x="800" y="160" width="260" height="330" as="geometry"/>
                </mxCell>
            </root>
        </mxGraphModel>
    </diagram>
</mxfile>